<svg width="48" height="48" viewBox="0 0 48 48" fill="none" xmlns="http://www.w3.org/2000/svg">
<path d="M8.93825 25.1738C11.7439 23.6285 14.8757 22.3386 17.8019 21.0422C22.8361 18.9188 27.8903 16.8322 32.9955 14.8896C33.9887 14.5587 35.7735 14.235 35.9485 15.707C35.8526 17.7906 35.4584 19.862 35.188 21.9334C34.5018 26.4886 33.7085 31.0282 32.935 35.5684C32.6685 37.0807 30.774 37.8636 29.5618 36.8957C26.6486 34.928 23.713 32.9793 20.837 30.9659C19.8949 30.0087 20.7686 28.6339 21.6099 27.9503C24.0093 25.5857 26.5539 23.5767 28.8279 21.0899C29.4413 19.6087 27.6289 20.857 27.0311 21.2396C23.7463 23.5032 20.5419 25.905 17.0787 27.8944C15.3097 28.8681 13.2479 28.036 11.4797 27.4926C9.89431 26.8362 7.57109 26.1749 8.93809 25.174L8.93825 25.1738Z" fill="white"/>
</svg>
