<svg width="48" height="48" viewBox="0 0 48 48" fill="none" xmlns="http://www.w3.org/2000/svg">
<path fill-rule="evenodd" clip-rule="evenodd" d="M39.1942 16.4307C39.4313 15.6855 39.1942 15.1435 38.1441 15.1435H34.655C33.7743 15.1435 33.3678 15.6177 33.1307 16.1259C33.1307 16.1259 31.3354 20.4618 28.8287 23.2733C28.0157 24.0863 27.6431 24.3573 27.2027 24.3573C26.9656 24.3573 26.6607 24.0863 26.6607 23.3411V16.3968C26.6607 15.5161 26.3897 15.1096 25.6445 15.1096H20.1568C19.6148 15.1096 19.2761 15.5161 19.2761 15.9226C19.2761 16.7695 20.5294 16.9727 20.6649 19.3439V24.4928C20.6649 25.6107 20.4617 25.8139 20.0213 25.8139C18.8357 25.8139 15.9564 21.4441 14.2288 16.4646C13.8901 15.4822 13.5513 15.1096 12.6706 15.1096H9.14764C8.13141 15.1096 7.96204 15.5839 7.96204 16.092C7.96204 17.0066 9.14764 21.6135 13.4836 27.7109C16.3629 31.8774 20.4617 34.1131 24.154 34.1131C26.3897 34.1131 26.6607 33.605 26.6607 32.7582V29.6079C26.6607 28.5916 26.8639 28.4223 27.5753 28.4223C28.0834 28.4223 28.998 28.6932 31.0644 30.6918C33.4356 33.063 33.8421 34.147 35.1632 34.147H38.6522C39.6685 34.147 40.1427 33.6389 39.8717 32.6565C39.5668 31.6742 38.4151 30.2515 36.9246 28.5577C36.1116 27.6093 34.8922 26.5592 34.5196 26.051C34.0114 25.3736 34.1469 25.1026 34.5196 24.4928C34.4857 24.4928 38.7538 18.4632 39.1942 16.4307Z" fill="white"/>
</svg>
