<svg width="25" height="25" viewBox="0 0 25 25" fill="none" xmlns="http://www.w3.org/2000/svg">
<path d="M12.5 22.552C12.1771 22.552 11.8646 22.5104 11.6042 22.4166C7.625 21.052 1.30209 16.2083 1.30209 9.05204C1.30209 5.40621 4.25 2.44788 7.875 2.44788C9.63542 2.44788 11.2813 3.13538 12.5 4.36454C13.7188 3.13538 15.3646 2.44788 17.125 2.44788C20.75 2.44788 23.6979 5.41663 23.6979 9.05204C23.6979 16.2187 17.375 21.052 13.3958 22.4166C13.1354 22.5104 12.8229 22.552 12.5 22.552ZM7.875 4.01038C5.11459 4.01038 2.86459 6.27079 2.86459 9.05204C2.86459 16.1666 9.70834 20.125 12.1146 20.9479C12.3021 21.0104 12.7083 21.0104 12.8958 20.9479C15.2917 20.125 22.1458 16.177 22.1458 9.05204C22.1458 6.27079 19.8958 4.01038 17.1354 4.01038C15.5521 4.01038 14.0833 4.74996 13.1354 6.03121C12.8438 6.42704 12.1771 6.42704 11.8854 6.03121C10.9167 4.73954 9.45834 4.01038 7.875 4.01038Z" fill="white"/>
</svg>
