<svg width="23" height="18" viewBox="0 0 23 18" fill="none" xmlns="http://www.w3.org/2000/svg">
<path fill-rule="evenodd" clip-rule="evenodd" d="M12.8912 17.5645L12.9868 17.6705C13.4014 18.076 14.0537 18.1072 14.5048 17.7641L14.6132 17.6705L22.6632 9.79549L22.7108 9.74604L22.7742 9.66972L22.8566 9.54457L22.9181 9.41775L22.9588 9.29924L22.9921 9.13286L23 9L22.9968 8.91536L22.9767 8.77418L22.9428 8.64884L22.8923 8.52388L22.8321 8.4142L22.7474 8.29637L22.6632 8.2045L14.6132 0.329504C14.1641 -0.109836 13.4359 -0.109836 12.9868 0.329504C12.5723 0.735049 12.5404 1.37318 12.8912 1.81451L12.9868 1.92049L19.0716 7.875L1.15 7.875C0.514873 7.875 3.66244e-07 8.37868 3.93402e-07 9C4.20561e-07 9.62132 0.514873 10.125 1.15 10.125L19.0739 10.125L12.9868 16.0795C12.5723 16.485 12.5404 17.1232 12.8912 17.5645L12.9868 17.6705L12.8912 17.5645Z" fill="#333333"/>
</svg>
