<svg width="23" height="18" viewBox="0 0 23 18" fill="none" xmlns="http://www.w3.org/2000/svg">
<path fill-rule="evenodd" clip-rule="evenodd" d="M10.1088 17.5645L10.0132 17.6705C9.59862 18.076 8.9463 18.1072 8.49517 17.7641L8.38683 17.6705L0.336826 9.79549L0.28922 9.74604L0.225786 9.66972L0.143373 9.54457L0.0819107 9.41775L0.0412212 9.29924L0.0079418 9.13286L-3.93402e-07 9L0.00320777 8.91536L0.0232769 8.77418L0.0571991 8.64884L0.107725 8.52388L0.167896 8.4142L0.252641 8.29637L0.336826 8.2045L8.38683 0.329504C8.83593 -0.109836 9.56407 -0.109836 10.0132 0.329504C10.4277 0.735049 10.4596 1.37318 10.1088 1.81451L10.0132 1.92049L3.9284 7.875L21.85 7.875C22.4851 7.875 23 8.37868 23 9C23 9.62132 22.4851 10.125 21.85 10.125L3.9261 10.125L10.0132 16.0795C10.4277 16.485 10.4596 17.1232 10.1088 17.5645L10.0132 17.6705L10.1088 17.5645Z" fill="#333333"/>
</svg>
