<svg width="18" height="23" viewBox="0 0 18 23" fill="none" xmlns="http://www.w3.org/2000/svg">
<path fill-rule="evenodd" clip-rule="evenodd" d="M17.5645 12.8912L17.6705 12.9868C18.076 13.4014 18.1072 14.0537 17.7641 14.5048L17.6705 14.6132L9.7955 22.6632L9.74604 22.7108V22.7108L9.66972 22.7742V22.7742L9.54457 22.8566V22.8566L9.41775 22.9181V22.9181L9.29924 22.9588V22.9588L9.13286 22.9921V22.9921L9 23V23L8.91536 22.9968V22.9968L8.77418 22.9767V22.9767L8.64884 22.9428V22.9428L8.52388 22.8923V22.8923L8.4142 22.8321V22.8321L8.29637 22.7474V22.7474L8.2045 22.6632L0.329505 14.6132C-0.109835 14.1641 -0.109835 13.4359 0.329505 12.9868C0.735049 12.5723 1.37318 12.5404 1.81451 12.8912L1.9205 12.9868L7.875 19.0716V1.15C7.875 0.514872 8.37868 0 9 0C9.62132 0 10.125 0.514872 10.125 1.15V19.0739L16.0795 12.9868C16.4851 12.5723 17.1232 12.5404 17.5645 12.8912L17.6705 12.9868L17.5645 12.8912Z" fill="#333333"/>
</svg>
