<svg width="45" height="40" viewBox="0 0 45 40" fill="none" xmlns="http://www.w3.org/2000/svg">
<path d="M27.0563 31.3666C26.7 31.3666 26.3438 31.25 26.0625 31C25.5188 30.5166 25.5188 29.7166 26.0625 29.2333L36.45 20L26.0625 10.7666C25.5188 10.2833 25.5188 9.48328 26.0625 8.99995C26.6063 8.51662 27.5063 8.51662 28.05 8.99995L39.4313 19.1166C39.975 19.6 39.975 20.4 39.4313 20.8833L28.05 31C27.7688 31.25 27.4125 31.3666 27.0563 31.3666Z" fill="white"/>
<path d="M38.1188 21.25H6.5625C5.79375 21.25 5.15625 20.6833 5.15625 20C5.15625 19.3167 5.79375 18.75 6.5625 18.75H38.1188C38.8875 18.75 39.525 19.3167 39.525 20C39.525 20.6833 38.8875 21.25 38.1188 21.25Z" fill="white"/>
</svg>
