<svg width="25" height="26" viewBox="0 0 25 26" fill="none" xmlns="http://www.w3.org/2000/svg">
<path d="M12.5 22.777C12.1771 22.777 11.8646 22.7353 11.6041 22.6416C7.62498 21.277 1.30206 16.4333 1.30206 9.277C1.30206 5.63117 4.24998 2.67284 7.87498 2.67284C9.6354 2.67284 11.2812 3.36034 12.5 4.5895C13.7187 3.36034 15.3646 2.67284 17.125 2.67284C20.75 2.67284 23.6979 5.64159 23.6979 9.277C23.6979 16.4437 17.375 21.277 13.3958 22.6416C13.1354 22.7353 12.8229 22.777 12.5 22.777ZM7.87498 4.23534C5.11456 4.23534 2.86456 6.49575 2.86456 9.277C2.86456 16.3916 9.70831 20.3499 12.1146 21.1728C12.3021 21.2353 12.7083 21.2353 12.8958 21.1728C15.2916 20.3499 22.1458 16.402 22.1458 9.277C22.1458 6.49575 19.8958 4.23534 17.1354 4.23534C15.5521 4.23534 14.0833 4.97492 13.1354 6.25617C12.8437 6.652 12.1771 6.652 11.8854 6.25617C10.9166 4.9645 9.45831 4.23534 7.87498 4.23534Z" fill="#333333"/>
</svg>
