<svg width="25" height="26" viewBox="0 0 25 26" fill="none" xmlns="http://www.w3.org/2000/svg">
<g id="vuesax/outline/shopping-cart">
<g id="shopping-cart">
<path id="Vector" d="M18.9479 18.7145H7.85414C6.82289 18.7145 5.83331 18.277 5.13539 17.5166C4.43747 16.7562 4.08331 15.7353 4.16665 14.7041L5.03123 4.32908C5.06248 4.00616 4.94789 3.69367 4.72914 3.45408C4.51039 3.2145 4.20831 3.08949 3.88539 3.08949H2.08331C1.65623 3.08949 1.30206 2.73533 1.30206 2.30824C1.30206 1.88116 1.65623 1.52699 2.08331 1.52699H3.89582C4.65624 1.52699 5.37497 1.84991 5.88539 2.40199C6.16664 2.71449 6.37498 3.07908 6.48956 3.48533H19.5C20.5521 3.48533 21.5208 3.90199 22.2291 4.65199C22.9271 5.41241 23.2812 6.402 23.1979 7.45408L22.6354 15.2666C22.5208 17.1728 20.8541 18.7145 18.9479 18.7145ZM6.54165 5.0374L5.72915 14.8291C5.67706 15.4332 5.87498 16.0061 6.28123 16.4541C6.68748 16.902 7.24997 17.1416 7.85414 17.1416H18.9479C20.0312 17.1416 21.0104 16.2249 21.0937 15.1416L21.6562 7.32908C21.6979 6.7145 21.5 6.13117 21.0937 5.70409C20.6875 5.26659 20.125 5.02698 19.5104 5.02698H6.54165V5.0374Z" fill="#333333"/>
<path id="Vector_2" d="M16.9271 23.9228C15.7812 23.9228 14.8438 22.9853 14.8438 21.8395C14.8438 20.6937 15.7812 19.7562 16.9271 19.7562C18.0729 19.7562 19.0104 20.6937 19.0104 21.8395C19.0104 22.9853 18.0729 23.9228 16.9271 23.9228ZM16.9271 21.3187C16.6354 21.3187 16.4062 21.5478 16.4062 21.8395C16.4062 22.1312 16.6354 22.3603 16.9271 22.3603C17.2187 22.3603 17.4479 22.1312 17.4479 21.8395C17.4479 21.5478 17.2187 21.3187 16.9271 21.3187Z" fill="#333333"/>
<path id="Vector_3" d="M8.59377 23.9228C7.44794 23.9228 6.51044 22.9853 6.51044 21.8395C6.51044 20.6937 7.44794 19.7562 8.59377 19.7562C9.7396 19.7562 10.6771 20.6937 10.6771 21.8395C10.6771 22.9853 9.7396 23.9228 8.59377 23.9228ZM8.59377 21.3187C8.3021 21.3187 8.07294 21.5478 8.07294 21.8395C8.07294 22.1312 8.3021 22.3603 8.59377 22.3603C8.88544 22.3603 9.1146 22.1312 9.1146 21.8395C9.1146 21.5478 8.88544 21.3187 8.59377 21.3187Z" fill="#333333"/>
<path id="Vector_4" d="M21.875 9.33949H9.375C8.94792 9.33949 8.59375 8.98533 8.59375 8.55824C8.59375 8.13116 8.94792 7.77699 9.375 7.77699H21.875C22.3021 7.77699 22.6562 8.13116 22.6562 8.55824C22.6562 8.98533 22.3021 9.33949 21.875 9.33949Z" fill="#333333"/>
</g>
</g>
</svg>
